<svg xmlns="http://www.w3.org/2000/svg" width="128.071" height="29.724" viewBox="0 0 128.071 29.724"><defs><style>.a{fill:#fff;}</style></defs><g transform="translate(-231.218 -128.927)"><g transform="translate(231.218 128.927)"><path class="a" d="M239.451,218.352l-8.233-23.514h7.222l2.861,9.071a78.193,78.193,0,0,1,2.268,8.373h.07c.663-2.931,1.465-5.687,2.268-8.2l2.965-9.245h6.943l-8.478,23.514Z" transform="translate(-231.218 -189.047)"/><path class="a" d="M565.777,194.838v23.514h-6.594V194.838Z" transform="translate(-530.366 -189.047)"/><path class="a" d="M695.14,207.447a16.065,16.065,0,0,0,6.768,1.64c2.2,0,3.314-.7,3.314-1.884,0-1.012-1.081-1.675-3.942-2.477-4.012-1.116-7.326-3.175-7.326-7.257,0-4.256,3.838-7.4,9.943-7.4a17.573,17.573,0,0,1,7.187,1.326l-1.5,5.163a14.854,14.854,0,0,0-5.791-1.221c-1.954,0-3.07.628-3.07,1.64,0,1.256,1.5,1.675,4.57,2.651,4.57,1.465,6.733,3.663,6.733,7.222,0,3.942-3.1,7.571-10.606,7.571a18.657,18.657,0,0,1-7.64-1.6Z" transform="translate(-653.136 -184.7)"/><path class="a" d="M966,194.838v23.514H959.4V194.838Z" transform="translate(-895.42 -189.047)"/><path class="a" d="M1103.278,158.651c-7.745,0-12.455-5.2-12.455-11.966,0-7.187,5.163-12.385,12.873-12.385,7.954,0,12.664,5.128,12.664,12.036,0,7.117-4.989,12.315-13.048,12.315Zm.349-5.094c3.594,0,5.722-3,5.722-7.047s-2.233-7.117-5.757-7.117-5.756,3.07-5.756,7.117,2.233,7.047,5.756,7.047Zm6.7-24.63-4.186,4.535H1100.7l2.861-4.535Z" transform="translate(-1015.293 -128.927)"/><path class="a" d="M1437.847,218.352V194.838h8.268l3.873,6.8a67.52,67.52,0,0,1,4.152,8.9h.1a75.432,75.432,0,0,1-.453-9.559v-6.14h6.105v23.514h-7.222l-4.256-7.78a100.675,100.675,0,0,1-4.535-9.106h-.14c.174,3.558.209,6.977.209,10.536v6.349Z" transform="translate(-1331.825 -189.047)"/></g></g></svg>